<?xml version="1.0" encoding="iso-8859-1"?>
<!-- Generator: Adobe Illustrator 16.0.0, SVG Export Plug-In . SVG Version: 6.00 Build 0)  -->
<!DOCTYPE svg PUBLIC "-//W3C//DTD SVG 1.1//EN" "http://www.w3.org/Graphics/SVG/1.1/DTD/svg11.dtd">
<svg version="1.1" id="Capa_1" xmlns="http://www.w3.org/2000/svg" xmlns:xlink="http://www.w3.org/1999/xlink" x="0px" y="0px"
	 width="527.785px" height="527.785px" viewBox="0 0 527.785 527.785" style="enable-background:new 0 0 527.785 527.785;"
	 xml:space="preserve">
<g>
	<g>
		<path d="M371.005,132.662C371.005,59.51,322.968,0,263.893,0c-59.06,0-107.112,59.51-107.112,132.662
			c0,67.699,41.163,123.674,94.111,131.645l-0.127,0.727c-5.382,2.63-10.205,6.188-13.832,11.295
			c-5.544,7.779-4.885,18.123-2.627,26.883c5.618,21.728,21.609,38.834,29.471,59.557c10.628,28.041-1.974,55.773-12.082,81.853
			c-10.506,27.172-15.554,54.402-0.694,81.071c2.668,4.788,10.021,0.509,7.353-4.291c-14.461-25.924-7.282-51.885,2.852-77.845
			c9.387-24.057,19.086-48.326,13.306-74.534c-4.409-19.99-18.282-36.789-27.01-54.971c-3.934-8.192-7.813-18.051-5.89-27.29
			c0.958-4.64,3.644-8.121,7.167-10.799l-2.518,13.879c-0.307,1.661,0.139,3.369,1.229,4.657c1.076,1.295,2.669,2.039,4.351,2.039
			h28.375c1.637,0,3.203-0.709,4.279-1.933c1.081-1.241,1.578-2.884,1.354-4.504l-3.659-26.752
			C332.567,252.564,371.005,198.091,371.005,132.662z M258.632,285.188l2.778-15.267c2.459-0.77,4.897-1.39,7.167-1.91
			c1.253-0.277,2.071-0.957,2.541-1.803l2.59,18.986h-15.076V285.188z M263.893,253.968c-52.81,0-95.763-54.412-95.763-121.307
			c0-66.892,42.954-121.313,95.763-121.313s95.764,54.421,95.764,121.313C359.656,199.557,316.702,253.968,263.893,253.968z"/>
		<path d="M252.485,36.934c-41.402-4.667-56.604,54.237-57.228,56.755c-0.768,3.038,1.076,6.115,4.114,6.883
			c0.473,0.115,0.934,0.162,1.392,0.162c2.545,0,4.85-1.714,5.497-4.291c0.127-0.521,13.479-51.902,44.922-48.232
			c3.112,0.349,5.926-1.876,6.289-4.989C257.828,40.099,255.594,37.291,252.485,36.934z"/>
	</g>
</g>
<g>
</g>
<g>
</g>
<g>
</g>
<g>
</g>
<g>
</g>
<g>
</g>
<g>
</g>
<g>
</g>
<g>
</g>
<g>
</g>
<g>
</g>
<g>
</g>
<g>
</g>
<g>
</g>
<g>
</g>
</svg>
